<?xml version="1.0" encoding="UTF-8"?><svg id="Calque_2" xmlns="http://www.w3.org/2000/svg" viewBox="0 0 434.63 138.38"><defs><style>.cls-1{fill:#1e1432;}</style></defs><g id="Calque_1-2"><path class="cls-1" d="M210.92,86.23c-1.59,2.15-3.58,3.84-5.97,5.09-2.4,1.25-5.12,1.87-8.17,1.87-4.11,0-7.76-.95-10.97-2.85s-5.73-4.65-7.56-8.26c-1.84-3.61-2.75-7.9-2.75-12.88,0-3.79.51-7.17,1.54-10.13,1.03-2.95,2.49-5.46,4.39-7.52,1.9-2.05,4.14-3.62,6.72-4.71s5.43-1.63,8.54-1.63,5.66.58,8.03,1.73c2.37,1.15,4.33,2.74,5.88,4.76,1.55,2.02,2.55,4.37,2.99,7.05h11.02c-.44-4.48-1.87-8.43-4.29-11.86-2.43-3.42-5.65-6.13-9.66-8.12-4.01-1.99-8.67-2.99-13.96-2.99-4.67,0-8.96.76-12.88,2.29-3.92,1.53-7.31,3.72-10.18,6.58-2.86,2.86-5.1,6.36-6.72,10.5-1.62,4.14-2.43,8.82-2.43,14.05s.82,9.91,2.47,14.05c1.65,4.14,3.9,7.66,6.77,10.55,2.86,2.89,6.25,5.09,10.18,6.58,3.92,1.49,8.18,2.24,12.79,2.24,5.35,0,10.05-1.06,14.1-3.17,4.04-2.11,7.28-4.95,9.71-8.5,2.43-3.55,3.89-7.53,4.39-11.95h-11.02c-.37,2.68-1.35,5.09-2.94,7.24Z"/><path class="cls-1" d="M263.57,57.15c-3.64-2.05-7.83-3.08-12.56-3.08-3.55,0-6.8.59-9.75,1.77-2.96,1.18-5.51,2.85-7.66,4.99-2.15,2.15-3.83,4.7-5.04,7.65-1.21,2.96-1.82,6.21-1.82,9.76,0,4.73,1.04,8.93,3.13,12.6,2.08,3.67,4.96,6.55,8.63,8.63,3.67,2.09,7.84,3.13,12.51,3.13,3.55,0,6.8-.59,9.76-1.77,2.95-1.18,5.52-2.86,7.7-5.04,2.18-2.18,3.86-4.76,5.04-7.75,1.18-2.99,1.77-6.25,1.77-9.8,0-4.73-1.04-8.91-3.13-12.56-2.09-3.64-4.95-6.49-8.59-8.54ZM263.9,84.54c-.69,1.9-1.65,3.55-2.89,4.95-1.25,1.4-2.71,2.47-4.39,3.22-1.68.75-3.55,1.12-5.6,1.12-2.68,0-5.07-.65-7.19-1.96-2.12-1.31-3.77-3.13-4.95-5.46-1.18-2.33-1.77-5.06-1.77-8.17,0-2.24.34-4.31,1.03-6.21.69-1.9,1.65-3.53,2.9-4.9,1.24-1.37,2.71-2.43,4.39-3.17,1.68-.75,3.55-1.12,5.6-1.12,2.74,0,5.15.65,7.24,1.96,2.08,1.31,3.72,3.11,4.9,5.41,1.18,2.3,1.77,4.98,1.77,8.03,0,2.3-.34,4.4-1.03,6.3Z"/><path class="cls-1" d="M315.99,61.35c-.93-1.43-2.18-2.69-3.74-3.78-1.56-1.09-3.33-1.94-5.32-2.57-1.99-.62-4.11-.93-6.35-.93-3.49,0-6.63.56-9.43,1.68-2.8,1.12-5.21,2.75-7.23,4.9-2.02,2.15-3.59,4.71-4.71,7.7s-1.68,6.32-1.68,9.99c0,4.85.96,9.1,2.89,12.74,1.93,3.64,4.62,6.47,8.07,8.5,3.45,2.02,7.48,3.03,12.09,3.03,2.24,0,4.36-.31,6.35-.93,1.99-.62,3.76-1.49,5.32-2.61,1.37-.99,2.49-2.11,3.38-3.34l10.62,6.14V35.77h-10.27v25.58ZM314.96,84.59c-.69,1.87-1.67,3.5-2.94,4.9-1.28,1.4-2.77,2.47-4.48,3.22-1.71.75-3.59,1.12-5.65,1.12-2.68,0-5.06-.65-7.14-1.96-2.09-1.31-3.73-3.13-4.95-5.46-1.21-2.33-1.82-5.02-1.82-8.07,0-2.3.34-4.42,1.03-6.35.68-1.93,1.66-3.56,2.94-4.9,1.27-1.34,2.77-2.38,4.48-3.13,1.71-.75,3.59-1.12,5.65-1.12,2.67,0,5.06.65,7.14,1.96,2.08,1.31,3.73,3.13,4.95,5.46,1.21,2.33,1.82,5.03,1.82,8.08,0,2.3-.34,4.39-1.03,6.25Z"/><rect class="cls-1" x="333.81" y="54.81" width="10.18" height="47.05"/><rect class="cls-1" x="333.81" y="35.77" width="10.18" height="10.18"/><polygon class="cls-1" points="394.96 54.81 381.33 54.81 361.82 72.62 361.82 35.77 351.64 35.77 351.64 101.86 361.82 101.86 361.82 84.05 381.33 101.86 394.96 101.86 369.99 78.34 394.96 54.81"/><path class="cls-1" d="M434.63,72.27c0-3.86-.86-7.14-2.57-9.85-1.71-2.71-4.09-4.78-7.14-6.21-3.05-1.43-6.5-2.15-10.36-2.15-3.61,0-6.86.72-9.76,2.15-2.89,1.43-5.29,3.36-7.19,5.79-1.9,2.43-3.1,5.26-3.59,8.5h10.08c.31-2.74,1.41-4.81,3.31-6.21,1.9-1.4,4.28-2.1,7.14-2.1,1.99,0,3.72.36,5.18,1.07,1.46.72,2.61,1.73,3.45,3.03.84,1.31,1.26,2.89,1.26,4.76v1.24l-9.52,1c-7.35.75-12.68,2.37-16.01,4.85-3.33,2.49-4.99,6.1-4.99,10.83,0,2.55.67,4.87,2.01,6.95,1.34,2.09,3.23,3.72,5.69,4.9,2.46,1.18,5.37,1.77,8.73,1.77,2.05,0,4.05-.36,5.98-1.07,1.93-.71,3.59-1.62,4.99-2.71,1.16-.9,2.07-1.94,2.74-3.08l10.57,6.11v-29.59ZM424.46,81.14c0,2.43-.51,4.68-1.54,6.77-1.03,2.09-2.47,3.75-4.34,4.99-1.87,1.25-4.08,1.87-6.63,1.87-2.37,0-4.26-.54-5.7-1.63-1.43-1.09-2.15-2.63-2.15-4.62,0-1.49.37-2.75,1.12-3.78.75-1.03,1.97-1.85,3.69-2.47,1.71-.62,3.87-1.06,6.49-1.31l9.06-1.16v1.35Z"/><path class="cls-1" d="M133.52,37.35L69.76.54c-1.24-.71-2.76-.71-4,0L2,37.35c-1.24.71-2,2.04-2,3.46v73.62c0,1.43.76,2.75,2,3.46l34.55,19.94c1.24.71,2.76.71,4,0l34.55-19.94c1.24-.71,2-2.04,2-3.46v-20.64l17.88,10.32c1.24.71,2.76.71,4,0l34.55-19.94c1.24-.71,2-2.04,2-3.46v-39.89c0-1.43-.76-2.75-2-3.46ZM96.97,60.76l-29.21-16.87-29.21,16.87,29.21,16.87-29.21,16.87-29.21-16.87,29.21-16.87-29.21-16.87L67.76,10.16l58.42,33.73-29.21,16.87Z"/></g></svg>